<?xml version="1.0" standalone="no"?>
<!DOCTYPE svg PUBLIC "-//W3C//DTD SVG 20010904//EN"
 "http://www.w3.org/TR/2001/REC-SVG-20010904/DTD/svg10.dtd">
<svg version="1.0" xmlns="http://www.w3.org/2000/svg"
 width="512.000000pt" height="512.000000pt" viewBox="0 0 512.000000 512.000000"
 preserveAspectRatio="xMidYMid meet">
<metadata>
Created by potrace 1.14, written by Peter Selinger 2001-2017
</metadata>
<g transform="translate(0.000000,512.000000) scale(0.100000,-0.100000)"
fill="#000000" stroke="none">
<path d="M250 2560 l0 -2560 619 0 619 0 0 738 c1 405 1 755 2 777 0 37 9 49
98 142 178 187 366 384 423 445 l57 60 25 -43 c26 -45 554 -978 599 -1059 14
-25 65 -115 113 -200 48 -85 99 -175 113 -200 14 -25 69 -121 122 -215 53 -93
132 -232 174 -307 l77 -138 790 0 790 0 -12 22 c-7 12 -28 47 -48 78 -20 30
-40 63 -46 72 -9 17 -155 248 -325 518 -40 63 -143 228 -230 365 -86 138 -344
547 -572 910 -588 936 -688 1096 -691 1104 -2 7 42 55 272 300 18 20 73 79
121 131 48 52 108 116 131 141 24 25 73 77 108 115 36 38 97 103 135 145 39
41 100 106 136 145 36 38 126 135 200 214 74 79 148 158 163 175 16 16 69 73
117 125 49 52 108 116 132 141 224 239 282 302 331 354 l55 60 -841 3 c-735 2
-843 0 -853 -13 -6 -8 -40 -47 -76 -87 -36 -40 -87 -98 -113 -128 -27 -30 -63
-71 -80 -90 -18 -19 -90 -100 -160 -180 -70 -80 -158 -179 -195 -220 -77 -87
-293 -330 -411 -465 -24 -27 -51 -56 -59 -65 -8 -9 -40 -45 -70 -80 -30 -36
-64 -74 -75 -86 -17 -18 -95 -105 -158 -178 -10 -12 -49 -55 -86 -96 -37 -41
-83 -93 -102 -114 -61 -71 -79 -89 -80 -80 0 5 0 431 -1 947 l0 937 -619 0
-619 0 0 -2560z"/>
</g>
</svg>
